<!DOCTYPE svg PUBLIC "-//W3C//DTD SVG 1.1//EN" "http://www.w3.org/Graphics/SVG/1.1/DTD/svg11.dtd">
<!-- Uploaded to: SVG Repo, www.svgrepo.com, Transformed by: SVG Repo Mixer Tools -->
<svg width="800px" height="800px" viewBox="-2.4 -2.4 28.80 28.80" xmlns="http://www.w3.org/2000/svg" fill="#000000">
<g id="SVGRepo_bgCarrier" stroke-width="0" transform="translate(4.800000000000001,4.800000000000001), scale(0.6)">
<rect x="-2.4" y="-2.4" width="28.80" height="28.80" rx="14.4" fill="#ffffff" strokewidth="0"/>
</g>
<g id="SVGRepo_tracerCarrier" stroke-linecap="round" stroke-linejoin="round"/>
<g id="SVGRepo_iconCarrier"> <g> <path fill="none" d="M0 0h24v24H0z"/> <path d="M17.084 15.812a7 7 0 1 0-10.168 0A5.996 5.996 0 0 1 12 13a5.996 5.996 0 0 1 5.084 2.812zM12 23.728l-6.364-6.364a9 9 0 1 1 12.728 0L12 23.728zM12 12a3 3 0 1 1 0-6 3 3 0 0 1 0 6z"/> </g> </g>
</svg>